<svg xmlns="http://www.w3.org/2000/svg" version="1.1" xmlns:xlink="http://www.w3.org/1999/xlink" viewBox="0 0 8.093451426490248 8.093607289425112"><g transform="matrix(0.8571428571428571,0,0,0.8571428571428571,2.36376522511444,2.3208397159566134)"><g><path d=" M -0.5349605080187325 -0.019193681042907196 Q -0.5333236882276227 -0.01804441128717904 -0.5356657701603202 -0.012968521983763193 Q -0.5380078520930179 -0.007892632680347345 -0.5410377166575466 -0.008798127418384816 Q -0.5976996486455541 -0.029032392005624352 -0.6424512510799257 -0.014022592554734148 Q -0.6872028535142974 0.0009872068961559455 -0.7228302159418711 0.05172862042055737 L -0.7400692622777939 0.07628091728720321 Q -0.7573083086137167 0.10083321415384905 -0.7547138682616008 0.11976120610385033 Q -0.7521194279094849 0.1386891980538516 -0.7300223607295037 0.15420433975618208 L -0.5532458232896535 0.27832547337482605 L -0.5118721120834389 0.219399960894876 Q -0.4785432891673215 0.17193218695269408 -0.4777943282513414 0.13519067014205688 Q -0.4770453673353612 0.09844915333141979 -0.5065081235753361 0.07776229772831245 Q -0.5081449433664459 0.07661302797258429 -0.5046971340992614 0.07170256859925506 Q -0.5012493248320768 0.06679210922592582 -0.4996125050409671 0.06794137898165409 L -0.4257118394233388 0.12105156276284135 Q -0.3995227227655832 0.13943987885449227 -0.38585352955884133 0.14781562700476292 L -0.3419031702165696 0.17745286563600493 Q -0.33944794052990496 0.17917677026959722 -0.3428957497970895 0.1840872296429264 Q -0.34634355906427405 0.18899768901625558 -0.34879878875093867 0.1872737843826633 Q -0.3815351845731332 0.16428838926809963 -0.4188688157713913 0.17656438134827157 Q -0.45620244696964946 0.18884037342844356 -0.4895312698857668 0.23630814737062555 L -0.5303303462141173 0.29441524995502066 L -0.35519062856537703 0.4173871138179365 Q -0.3298199218031763 0.4352007950317234 -0.31294669434694067 0.43727303903524584 Q -0.29607346689070496 0.43934528303876835 -0.27852104020436574 0.42478807460374596 Q -0.2609686135180266 0.41023086616872356 -0.23396077425841422 0.37176560107764506 Q -0.23281150450268603 0.37012878128653537 -0.22790104512935688 0.3735765905537199 Q -0.2229905857560277 0.37702439982090447 -0.2241398555117559 0.37866121961201415 Q -0.24769988550418368 0.41221602532976354 -0.2617348975906127 0.4304648180496612 L -0.32116606502830497 0.513367992518393 L -0.3634452709725571 0.5753233695628718 Q -0.37411955863428403 0.592266202351833 -0.3942317793595273 0.6209105486962532 Q -0.3959556839931196 0.6233657783829178 -0.4008661433664487 0.6199179691157333 Q -0.4057766027397779 0.6164701598485487 -0.4040526981061856 0.6140149301618841 Q -0.3839404773809424 0.585370583817464 -0.37883836881289124 0.5694028510992657 Q -0.37373626024484 0.5534351183810674 -0.382442711902133 0.5406016582264863 Q -0.39114916355942597 0.5277681980719053 -0.41570146042607187 0.5105291517359825 L -0.7946252420679728 0.24447320328490763 Q -0.8191775389346186 0.22723415694898486 -0.8335084518617071 0.22328131813666185 Q -0.8478393647887956 0.2193284793243389 -0.8609601423823088 0.22844413592940932 Q -0.8740809199758219 0.23755979253447973 -0.8918946011896088 0.26293049929668044 Q -0.8936185058232011 0.265385728983345 -0.8985289651965302 0.26193791971616043 Q -0.9034394245698594 0.25849011044897585 -0.9017155199362671 0.2560348807623113 L -0.6580703317218919 -0.09097091495295007 Q -0.6523239829432509 -0.09915501390849868 -0.6449582938832572 -0.0939833000077217 L -0.5349605080187325 -0.019193681042907196 M -0.05472303949558521 -0.6815237234443461 Q -0.0506779233697065 -0.6770923539575897 -0.05215504653195868 -0.6757439819156301 Q -0.07505045554686685 -0.6548442152652567 -0.08232956488981807 -0.5960712234478125 Q -0.08960867423276936 -0.5372982316303683 -0.07635554035535402 -0.4708651491907636 L -0.03585757714198204 -0.2722400878929294 L 0.11448590553651086 -0.1075408553018159 Q 0.1353856721868843 -0.08464544628690773 0.14851708438623173 -0.07767651425604172 Q 0.16164849658557912 -0.0707075822251757 0.17572856961680605 -0.0767904716237523 Q 0.189808642648033 -0.0828733610223289 0.21344261324406721 -0.10444731369368215 Q 0.21565829798744546 -0.10646987175662154 0.21970341411332422 -0.1020385022698651 Q 0.22374853023920294 -0.09760713278310867 0.2215328454958247 -0.09558457472016929 Q 0.1971603133186644 -0.07333643602783624 0.1824534572562893 -0.061265463210346316 L 0.12638715265085426 -0.011440073217988261 L 0.07240778166850492 0.03918825391564221 Q 0.058310736066963326 0.05341053591636405 0.03319964230867695 0.07633286062967685 Q 0.031722519146424794 0.07768123267163643 0.027677403020546054 0.07324986318488 Q 0.02363228689466733 0.0688184936981236 0.025109410056919468 0.067470121656164 Q 0.048743380652953694 0.045896168984810776 0.05645087426494583 0.0320905707644836 Q 0.06415836787693793 0.018284972544156397 0.05844475926892434 0.0038678065024395636 Q 0.052731150660910775 -0.01054935953927727 0.032505570031517134 -0.03270620697305937 L -0.1036800062064002 -0.18189564636052546 L -0.3645502238132184 -0.2511179662130941 Q -0.43097979153171073 -0.26900965514215397 -0.4642437357413447 -0.2691097332034857 Q -0.49750767995097867 -0.26920981126481747 -0.5100632268301218 -0.257748648908161 Q -0.5122789115735 -0.2557260908452217 -0.5163240276993788 -0.2601574603319781 Q -0.5203691438252576 -0.2645888298187345 -0.5181534590818793 -0.2666113878816738 L -0.4945838640459913 -0.2867725929509212 Q -0.4769871372192583 -0.30012756225022447 -0.47034008298912366 -0.30619523643904256 Q -0.4444904276497112 -0.32979174717333515 -0.39709373533735015 -0.3757651477202534 L -0.34902285700400937 -0.42099998668604544 Q -0.3475457338417572 -0.422348358728005 -0.3435006177158785 -0.41791698924124865 Q -0.33945550158999976 -0.4134856197544923 -0.34093262475225194 -0.4121372477125327 Q -0.3534881716313951 -0.4006760853558763 -0.3551110184842544 -0.38836282550755974 Q -0.35673386533711376 -0.3760495656592432 -0.34796944706437655 -0.36644826510460426 Q -0.3371824707286999 -0.35463127980658715 -0.31201051613137953 -0.3478215293155307 L -0.06520339898547367 -0.28065571266653067 L -0.1031029388157021 -0.45863499483346415 Q -0.11350014706938871 -0.5100732885505916 -0.13507409974074197 -0.5337072591466259 Q -0.15125456424425687 -0.5514327370936516 -0.1703910324328322 -0.5508890595535204 Q -0.1895275006214076 -0.5503453820133895 -0.20946866331181152 -0.532142359446935 Q -0.2116843480551897 -0.5301198013839957 -0.21572946418106842 -0.5345511708707522 Q -0.21977458030694713 -0.5389825403575086 -0.21755889556356894 -0.5410050984204479 L -0.17774094574290744 -0.5759983959512507 Q -0.1424187409691487 -0.6055338297540688 -0.11583052404861022 -0.6298045265093412 Q -0.10327497716946699 -0.6412656888659976 -0.08689787126440085 -0.6589232765317646 L -0.060245278783716105 -0.6846067208891429 Q -0.058768155621463924 -0.6859550929311025 -0.05472303949558521 -0.6815237234443461 M 0.730658766353828 -1.1254741110114113 Q 0.7334395002535425 -1.1201573903135582 0.7316672600209249 -1.1192304790136534 Q 0.6962224553685719 -1.1006922530155558 0.6904405456669707 -1.0621199894029218 Q 0.6846586359653694 -1.0235477257902879 0.7092217854128484 -0.9765833596259201 L 0.9465110781884956 -0.5228898600758017 Q 0.9479014451383528 -0.5202314997268753 0.9443773602649157 -0.5172598291857805 Q 0.9408532753914784 -0.5142881586446857 0.9381541238589558 -0.5151334875773985 L 0.27507847223551624 -0.7709609298586186 L 0.4553627200670137 -0.4262602046144857 Q 0.47992586951449284 -0.379295838450118 0.5137876372218124 -0.362022139143498 Q 0.5476494049291322 -0.34474843983687803 0.5822080894651763 -0.36282321018502306 Q 0.5839803296977939 -0.3637501214849279 0.5867610635975086 -0.358433400787075 Q 0.5895417974972232 -0.35311668008922203 0.5877695572646056 -0.3521897687893171 Q 0.5629581940079584 -0.3392130105906489 0.5492029366133736 -0.33314729595767123 L 0.5008889946827446 -0.30900681097654853 L 0.44641300312154997 -0.2793864405631887 Q 0.43181241679425236 -0.2706215743976884 0.40345657307236993 -0.2557909935992105 Q 0.40079821272344346 -0.2544006266493532 0.39801747882372884 -0.25971734734720614 Q 0.3952367449240142 -0.2650340680450591 0.3978951052729407 -0.2664244349949164 Q 0.436884390390529 -0.2868164835928236 0.4451133282078785 -0.3261043262721842 Q 0.4533422660252281 -0.3653921689515449 0.428779116577749 -0.41235653511591264 L 0.23273737664786864 -0.7871853443145457 Q 0.18681100941138973 -0.803791632053233 0.15973053540377447 -0.8048630458495198 Q 0.1326500613961592 -0.8059344596458068 0.11049705848843855 -0.7943480683969959 Q 0.10872481825582092 -0.793421157097091 0.1059440843561063 -0.798737877794944 Q 0.10316335045639169 -0.8040545984927969 0.10493559068900932 -0.8049815097927018 L 0.14261609122393243 -0.8235605269743952 Q 0.15459910838589958 -0.828699330307468 0.17675211129362017 -0.8402857215562789 L 0.24363378448313847 -0.8763944710689728 Q 0.2555760104615096 -0.8837689702846159 0.2732984127876861 -0.8930380832836645 Q 0.2803873737181567 -0.896745728483284 0.28578567678320177 -0.8950550706178585 Q 0.29118397984824673 -0.893364412752433 0.3060701044607167 -0.8864794077399425 Q 0.3317936263868727 -0.873977391114031 0.341704112400654 -0.8701326197332274 L 0.8332204769745294 -0.676926348209549 L 0.6835243020398927 -0.9631431457772995 Q 0.6584976969424611 -1.010993632057976 0.6246359292351413 -1.028267331364596 Q 0.5907741615278217 -1.045541030671216 0.5562154769917775 -1.027466260323071 Q 0.5544432367591599 -1.0265393490231662 0.5516625028594453 -1.031856069721019 Q 0.5488817689597307 -1.0371727904188721 0.5506540091923483 -1.038099701718777 L 0.5892206298435803 -1.0571421745504228 Q 0.6185033848653676 -1.0702005151162832 0.6379980274241617 -1.0803965394152366 Q 0.6557204297503381 -1.0896656524142854 0.686693842637551 -1.1081222960451909 L 0.7261057922214956 -1.1298639204093592 Q 0.7278780324541133 -1.130790831709264 0.730658766353828 -1.1254741110114113 M 1.77258850718344 -0.7431035171476102 Q 1.7737643319867331 -0.7372198587591616 1.7708225027925089 -0.7366319463575152 Q 1.7365011621932256 -0.7297729683383061 1.7157123870331068 -0.7266381912581886 L 1.640009466914135 -0.7125290493473365 L 1.5519505618879557 -0.6939110675665334 Q 1.5344955575231587 -0.6894029834252464 1.504096655849508 -0.6833278886082326 Q 1.5011548266552837 -0.682739976206586 1.4999790018519907 -0.6886236345950346 Q 1.4988031770486976 -0.6945072929834831 1.5017450062429218 -0.6950952053851296 Q 1.5380275663050214 -0.7023461250054365 1.5537180777362147 -0.7105806772718071 Q 1.569408589167408 -0.7188152295381778 1.572548656348173 -0.733719590581184 Q 1.575688723528938 -0.7486239516241903 1.5696136287119242 -0.7790228532978412 L 1.5245403445856924 -1.0045630915217023 L 1.2078034013408787 -0.941264522944429 L 1.2528766854671105 -0.7157242847205679 Q 1.2587558094835756 -0.6863059927783253 1.267481044479982 -0.6732629764762008 Q 1.2762062794763886 -0.6602199601740766 1.2938564989130705 -0.6586484151263663 Q 1.3115067183497522 -0.657076870078656 1.3477892784118515 -0.6643277896989628 Q 1.3497504978746677 -0.6647197313000605 1.3509263226779606 -0.658836072911612 Q 1.3521021474812538 -0.6529524145231633 1.3501409280184375 -0.6525604729220656 Q 1.3158195874191543 -0.6457014949028566 1.2950308122590357 -0.6425667178227391 L 1.2095217948259829 -0.6264978679063987 L 1.1361720357709248 -0.6108194481338282 Q 1.1167558119433119 -0.6059194223914434 1.0824344713440286 -0.5990604443722342 Q 1.0804732518812123 -0.5986685027711366 1.0792974270779194 -0.6045521611595851 Q 1.0781216022746263 -0.6104358195480336 1.0800828217374425 -0.6108277611491313 Q 1.1144041623367258 -0.6176867391683405 1.1291140640365112 -0.6257253206341623 Q 1.1438239657362963 -0.633763902099984 1.146866047516787 -0.6491585680086944 Q 1.1499081292972773 -0.6645532339174047 1.1440290052808124 -0.6939715258596475 L 1.0532945246267025 -1.1479938315015938 Q 1.0474154006102374 -1.1774121234438366 1.0387881510141053 -1.1899648348802567 Q 1.0301609014179731 -1.202517546316677 1.013883611178129 -1.2048733524309148 Q 0.997606320938285 -1.2072291585451522 0.9642655900704099 -1.200566151326492 Q 0.9613237608761857 -1.1999782389248455 0.9601479360728926 -1.205861897313294 Q 0.9589721112695997 -1.2117455557017425 0.961913940463824 -1.212333468103389 L 1.0150628367604098 -1.2219352816016178 Q 1.0605628260062796 -1.228988718964048 1.0880198984857061 -1.2344759013794155 Q 1.1252830682792136 -1.241922791800271 1.1739216132485206 -1.253682551290529 L 1.2276591776754167 -1.265441555052123 Q 1.229620397138233 -1.2658334966532205 1.2307962219415258 -1.259949838264772 Q 1.231972046744819 -1.2540661798763235 1.2300108272820027 -1.2536742382752257 Q 1.1947088769513114 -1.2466192894554677 1.1792143363206669 -1.237404127457689 Q 1.1637197956900223 -1.2281889654599105 1.1601874090438278 -1.2126963141509255 Q 1.1566550223976333 -1.197203662841941 1.1625341464140984 -1.1677853708996981 L 1.2023162189255114 -0.9687215954238556 L 1.5190531621703252 -1.0320201640011288 L 1.479271089658912 -1.2310839394769713 Q 1.4733919656424468 -1.2605022314192142 1.4646667306460404 -1.2735452477213385 Q 1.4559414956496337 -1.2865882640234627 1.438095305412403 -1.2891404188025812 Q 1.4202491151751726 -1.2916925735816993 1.383966555113073 -1.2844416539613928 Q 1.3810247259188488 -1.2838537415597462 1.379848901115556 -1.2897373999481947 Q 1.3786730763122628 -1.2956210583366432 1.381614905506487 -1.2962089707382898 L 1.4298607531460323 -1.3048309302337744 Q 1.4792831813175347 -1.3126682507984 1.5185075705738584 -1.3205070828203533 Q 1.5449840333218767 -1.3257982944351718 1.5936225782911837 -1.3375580539254295 L 1.6483407524494882 -1.3495130284875723 Q 1.6512825816437124 -1.3501009408892188 1.6524584064470051 -1.3442172825007703 Q 1.6536342312502983 -1.3383336241123218 1.650692402056074 -1.3377457117106752 Q 1.617351671188199 -1.3310827044920148 1.6022494500229838 -1.3224558327602147 Q 1.587147228857769 -1.3138289610284144 1.5844974665427083 -1.2990225853856825 Q 1.5818477042276473 -1.2842162097429508 1.5877268282441124 -1.2547979178007078 L 1.678461308898222 -0.8007756121587616 Q 1.6843404329146872 -0.7713573202165188 1.69257536304539 -0.7582163185141201 Q 1.7008102931760924 -0.7450753168117213 1.717479902881366 -0.7433078009634623 Q 1.7341495125866397 -0.7415402851152031 1.768470853185923 -0.7483992631344123 Q 1.7714126823801473 -0.7489871755360588 1.77258850718344 -0.7431035171476102 M 2.338369964389365 -0.8655480327042759 Q 2.341365635537612 -0.8653869290992258 2.343781476358626 -0.8637548405208937 Q 2.3461973171796404 -0.8621227519425616 2.346143615977957 -0.861124194893146 Q 2.3319693517524946 -0.7837737570555565 2.328532474844757 -0.7198661058929527 Q 2.3281028652312896 -0.7118776494976272 2.3249192398771505 -0.7085438034297226 Q 2.3217356145230115 -0.7052099573618179 2.3127486010782703 -0.7056932681769685 L 1.8713863852365378 -0.7294291993210328 Q 1.8683907140882907 -0.729590302926083 1.868712921298391 -0.7355816452225771 Q 1.8690351285084916 -0.7415729875190712 1.8720307996567387 -0.741411883914021 Q 1.9039846252380406 -0.739693445460152 1.918732208462985 -0.7439075632828211 Q 1.9334797916879294 -0.7481216811054903 1.9392512443594172 -0.7623322523136007 Q 1.945022697030905 -0.776542823521711 1.946633733081407 -0.8064995350041816 L 1.9714973894608228 -1.2688314488836436 Q 1.973108425511325 -1.2987881603661142 1.9688674570878142 -1.3130364650663506 Q 1.9646264886643032 -1.3272847697665875 1.9499434895323269 -1.3335823515636247 Q 1.93526049040035 -1.339879933360662 1.904305221868464 -1.3415446706128475 Q 1.901309550720217 -1.3417057742178977 1.9016317579303172 -1.3476971165143918 Q 1.9019539651404178 -1.353688458810886 1.9049496362886649 -1.3535273552058358 L 2.328337825240915 -1.3307580456920727 Q 2.338323395735072 -1.3302210336752387 2.3378400849199212 -1.3212340202304975 L 2.33269493919486 -1.1883185302548447 Q 2.332587536791493 -1.1863214161560134 2.3270417718180236 -1.1856182157158563 Q 2.321496006844554 -1.1849150152756995 2.3206585534001887 -1.1879643876256298 Q 2.307796310307175 -1.246739915718674 2.2713547760765143 -1.2767401587662826 Q 2.2349132418458533 -1.306740401813891 2.173002704782081 -1.310069876318262 L 2.1430459932996104 -1.311680912368764 Q 2.11308928181714 -1.3132919484192662 2.098411367503436 -1.30106252360043 Q 2.0837334531897325 -1.288833098781594 2.0822835207442805 -1.2618720584473704 L 2.071328475600866 -1.0581664203665704 L 2.1542087107023677 -1.053709220626848 Q 2.212125019568478 -1.0505945509292107 2.244154312134032 -1.068900954665339 Q 2.2761836046995865 -1.087207358401467 2.278116847960189 -1.1231554121804317 Q 2.278277951565239 -1.1261510833286787 2.283770015337025 -1.12585572671942 Q 2.2892620791088114 -1.1255603701101613 2.2891009755037612 -1.1225646989619142 L 2.283269310302839 -1.0327482657161862 L 2.2816902096714515 -0.9847638261425498 Q 2.2818614829130475 -0.9507054840590496 2.280787458879379 -0.930734343070736 Q 2.2806800564760126 -0.9287372289719046 2.2746887141795185 -0.929059436182005 Q 2.2686973718830243 -0.9293816433921054 2.2688047742863913 -0.9313787574909368 Q 2.2710065235554104 -0.9723195965169799 2.2408139547383765 -0.9974772750312757 Q 2.2106213859213426 -1.0226349535455714 2.151706520005817 -1.0258033244448923 L 2.069824841953731 -1.0302068229829313 L 2.0576883703732816 -0.8045329298149866 Q 2.056131035524463 -0.7755747753819318 2.0663633462444677 -0.7610042634715947 Q 2.076595656964473 -0.7464337515612577 2.1005610261504493 -0.745144922720856 L 2.133513408781167 -0.7433727830653036 Q 2.2114008586355904 -0.7391840893339983 2.2600514784119965 -0.7686139584361802 Q 2.3087020981884026 -0.7980438275383621 2.3342683337883354 -0.8637657234121782 Q 2.3343757361917024 -0.8657628375110096 2.338369964389365 -0.8655480327042759 M 2.635058048607357 -0.7238894213165197 Q 2.6282633097904657 -0.6987929768589828 2.6291189359995384 -0.6866472819924736 Q 2.6299745622086115 -0.6745015871259644 2.640029568208385 -0.667635230425026 Q 2.650084574208158 -0.6607688737240878 2.675181018665695 -0.6539741349071964 L 2.7079994460332433 -0.6450887072235693 Q 2.7832887794058534 -0.6247044907728951 2.849153356135876 -0.6498661189430864 Q 2.915017932865899 -0.6750277471132776 2.951912505969456 -0.7385949593811306 Q 2.95243517818614 -0.7405254551086334 2.9562961696411456 -0.7394801106752655 Q 2.9582266653686484 -0.7389574384585815 2.960247780865514 -0.7368562263920995 Q 2.9622688963623798 -0.7347550143256174 2.9620075602540377 -0.733789766461866 Q 2.9274480547544193 -0.6405822529255536 2.910199871603849 -0.5768758939179602 Q 2.908109182737113 -0.5691539110079489 2.9038161388347863 -0.5666902198640158 Q 2.8995230949324595 -0.5642265287200828 2.8918011120224483 -0.5663172175868186 L 2.43620412033178 -0.6896678607242307 Q 2.4342736246042773 -0.6901905329409146 2.435841641254329 -0.6959820201234231 Q 2.437409657904381 -0.7017735073059316 2.4393401536318837 -0.7012508350892477 Q 2.470228085271929 -0.6928880796223045 2.4855308598380343 -0.6939249453701029 Q 2.50083363440414 -0.6949618111179013 2.509931871225731 -0.707520556546416 Q 2.5190301080473225 -0.7200793019749306 2.526870191297582 -0.7490367378874732 L 2.6478688094599163 -1.1959464988043786 Q 2.6557088927101753 -1.224903934716921 2.6540587349763305 -1.239854753405322 Q 2.6524085772424852 -1.2548055720937223 2.6393672078820947 -1.264034476969485 Q 2.6263258385217045 -1.2732633818452475 2.5964031547454103 -1.2813648012038485 Q 2.5944726590179075 -1.2818874734205323 2.5960406756679593 -1.287678960603041 Q 2.5976086923180115 -1.2934704477855494 2.5995391880455143 -1.2929477755688654 L 2.6485054929884946 -1.2786543861796735 Q 2.6923842225043755 -1.2647024294684397 2.721341658416918 -1.2568623462181805 Q 2.7502990943294607 -1.2490222629679213 2.7952231682787096 -1.238931297711693 L 2.8447121454383737 -1.226568404050004 Q 2.847607889029628 -1.225784395724978 2.8460398723795763 -1.2199929085424697 Q 2.844471855729524 -1.214201421359961 2.84157611213827 -1.214985429684987 Q 2.8116534283619763 -1.2230868490435882 2.7957373618098242 -1.221698027418085 Q 2.7798212952576717 -1.220309205792582 2.771205682367956 -1.2076197923098961 Q 2.7625900694782404 -1.1949303788272105 2.7547499862279814 -1.1659729429146681 L 2.635058048607357 -0.7238894213165197 M 3.173574447393209 -0.47827714081105466 Q 3.1731638242026534 -0.4621811354496186 3.1877572244251287 -0.44792341228122073 Q 3.2023506246476034 -0.43366568911282294 3.240584999816353 -0.4139900047421249 Q 3.2432525143630095 -0.41261728257672736 3.2405070700322147 -0.4072822534834135 Q 3.2377616257014195 -0.40194722439009967 3.235094111154763 -0.4033199465554972 Q 3.198638079017118 -0.4220804828159302 3.1786447082145473 -0.4334938575995303 L 3.101744360416629 -0.4741919719116111 L 3.036377265726178 -0.5067057064207321 Q 3.018136261359999 -0.51496801600783 2.9879044298312207 -0.5305255338823354 Q 2.9852369152845637 -0.531898256047733 2.987982359615359 -0.5372332851410468 Q 2.9907278039461542 -0.5425683142343607 2.993395318492811 -0.5411955920689631 Q 3.021848806990485 -0.5265532223047228 3.037029664241656 -0.5243642560830629 Q 3.052210521492827 -0.522175289861403 3.0632912028700097 -0.5327804065612489 Q 3.074371884247193 -0.5433855232610948 3.088099105901168 -0.5700606687276641 L 3.299955893427521 -0.981747080428383 Q 3.3136831150814965 -1.0084222258949522 3.31564329427559 -1.0231584973883472 Q 3.3176034734696835 -1.037894768881742 3.306782558039628 -1.0496488230442673 Q 3.295961642609572 -1.0614028772067927 3.2683973256274506 -1.0755876729159004 Q 3.2657298110807935 -1.076960395081298 3.2684752554115883 -1.082295424174612 Q 3.2712206997423836 -1.087630453267926 3.2738882142890406 -1.0862577311025283 L 3.3205567305581805 -1.0611171346649528 Q 3.3605434721633216 -1.0382903850977527 3.3845511030832336 -1.025935885609175 Q 3.405891219456489 -1.0149541082859947 3.436606601635113 -1.0025216790132787 Q 3.4486234053924254 -0.9974623878121084 3.466864409758604 -0.9892000782250105 Q 3.485105414124783 -0.9809377686379126 3.508223873529143 -0.9690408432044673 Q 3.598919368115478 -0.9223682895809511 3.6319335901899326 -0.8575816309171598 Q 3.664947812264387 -0.7927949722533685 3.624223721357594 -0.713658707369213 Q 3.595854129939378 -0.6585300734049699 3.547724957071006 -0.634938068000461 Q 3.4995957842026346 -0.6113460625959521 3.4446259934543275 -0.6148917790379931 Q 3.3896562027060204 -0.6184374954800341 3.3425301123817484 -0.6426889204020573 Q 3.318522481461836 -0.6550434198906351 3.3030269214264525 -0.6686407585710469 Q 3.301248578395348 -0.6695559066813119 3.3035364486710104 -0.6740017642590734 Q 3.304909170836408 -0.6766692788057304 3.307615650275134 -0.6786504322696885 Q 3.31032212971386 -0.6806315857336467 3.311642898689832 -0.6788272661078294 Q 3.3231501752025867 -0.6684069692186324 3.3400444339980804 -0.6597130621711147 Q 3.3809463237134865 -0.6386646556350192 3.42774173930853 -0.6629430221222268 Q 3.4745371549035733 -0.6872213886094345 3.5106855052590418 -0.7574659383380669 Q 3.5468338556145103 -0.8277104880666992 3.536722294214206 -0.8812735940823877 Q 3.5266107328139014 -0.9348367000980762 3.4697037558185535 -0.9641214396265568 Q 3.444806953383089 -0.9769335131702672 3.4299667755108434 -0.9699500240194122 Q 3.4151265976385976 -0.9629665348685573 3.397738783543562 -0.9291780172775697 L 3.1886274403480046 -0.5228266346701645 Q 3.1739850705837642 -0.4943731461724907 3.173574447393209 -0.47827714081105466 M 3.9596922165041586 -0.08588409076681408 Q 3.962010882641171 -0.08398046597577186 3.9629912920264942 -0.0812347789147303 Q 3.963971701411817 -0.0784890918536888 3.963337159814803 -0.07771620314135122 Q 3.9061140281243296 -0.023776299549161384 3.865503365915429 0.025688578040443222 Q 3.8604270331393162 0.031871687739143784 3.8558874714127542 0.032673173441283065 Q 3.8513479096861922 0.03347465914342235 3.844391911275154 0.027763784770295674 L 3.5027751004219474 -0.25270360110992474 Q 3.500456434284935 -0.25460722590096696 3.5042636838670194 -0.25924455817499237 Q 3.508070933449104 -0.2638818904490178 3.5103895995861163 -0.26197826565797555 Q 3.5351220383809188 -0.24167293455352523 3.549501632694884 -0.23633652495850904 Q 3.563881227008849 -0.23100011536349283 3.5769465237272406 -0.23903429370731724 Q 3.590011820445633 -0.24706847205114166 3.609048068356055 -0.27025513342126883 L 3.902840827773571 -0.6281026072335645 Q 3.921877075683993 -0.6512892686036915 3.9268962144805024 -0.665282418561488 Q 3.9319153532770117 -0.6792755685192844 3.9238120013755253 -0.6930445803923521 Q 3.9157086494740394 -0.7068135922654197 3.8917490993915744 -0.7264843817728561 Q 3.889430433254562 -0.7283880065638983 3.893237682836646 -0.7330253388379238 Q 3.8970449324187304 -0.7376626711119492 3.8993635985557433 -0.7357590463209069 L 4.227068412586874 -0.4667134091869398 Q 4.234797299710249 -0.4603679932167991 4.2290864253371225 -0.45341199480576094 L 4.146238170358926 -0.34934871287083574 Q 4.144969087164898 -0.34780293544616064 4.1400836576500275 -0.35052002551740047 Q 4.135198228135156 -0.3532371155886403 4.136328964213861 -0.3561903233226671 Q 4.160766157443276 -0.4111705341904714 4.149163551090843 -0.4569239988224582 Q 4.137560944738409 -0.502677463454445 4.08964184457348 -0.5420190424693175 L 4.066455183203352 -0.5610552903797397 Q 4.043268521833225 -0.5800915382901619 4.024199039099316 -0.5789275673879706 Q 4.005129556365407 -0.5777635964857791 3.9879969332460274 -0.5568956012526647 L 3.858550447455156 -0.3992263039358001 L 3.922700210579175 -0.34655935138363203 Q 3.967527755894754 -0.3097559387568158 4.0041781379175 -0.30554292349613094 Q 4.040828519940247 -0.3013299082354461 4.0636720174327525 -0.32915390187959864 Q 4.065575642223795 -0.3314725680166114 4.069826530141652 -0.327982589233034 Q 4.074077418059509 -0.3244926104494566 4.072173793268466 -0.32217394431244384 L 4.014292160824862 -0.2532485017990765 L 3.984607052880524 -0.215515302009859 Q 3.964578416006721 -0.18796800259635343 3.9518875840664394 -0.172510228349602 Q 3.950618500872411 -0.17096445092492685 3.9459811685983857 -0.1747717005070113 Q 3.9413438363243603 -0.1785789500890957 3.9426129195183885 -0.18012472751377084 Q 3.9686291249959655 -0.21181316471961126 3.9591948580871628 -0.24996410976548755 Q 3.94976059117836 -0.2881150548113638 3.904160157150443 -0.32555300903519413 L 3.8407832827387622 -0.3775854199903481 L 3.697376881813582 -0.20291257100205695 Q 3.678975175500174 -0.18049879834426735 3.67859336897769 -0.16269839880438658 Q 3.678211562455206 -0.14489799926450575 3.6967608915513077 -0.12966900093616798 L 3.7222662190584477 -0.10872912823470357 Q 3.7825515386207784 -0.05923488366760585 3.8391826392050943 -0.05414386740274668 Q 3.8958137397894106 -0.04905285113788754 3.9553315784607803 -0.08687647973019519 Q 3.956600661654808 -0.08842225715487034 3.9596922165041586 -0.08588409076681408 M 4.354008332423904 0.6489128763414644 Q 4.349212099916072 0.652517894195904 4.348010427297926 0.650919150026627 L 4.241061564282886 0.5086309189609823 Q 4.227843165483275 0.49104473309893626 4.257741183921552 0.3935134125220855 Q 4.28763920235983 0.2959820919452346 4.354875184615094 0.13911169100812423 Q 4.349269122057869 0.13331755064008988 4.340256577421771 0.12132696937051307 Q 4.316823961367914 0.09015145806961336 4.30800995250738 0.07676066840632484 L 4.122555628871258 0.2161546921113201 Q 4.097775094247466 0.234780617692591 4.089588066607894 0.24718918644280885 Q 4.081401038968322 0.2595977551930267 4.086116305026692 0.2741928319656506 Q 4.0908315710850625 0.2887879087382744 4.110058332975407 0.31436781544670495 Q 4.111260005593553 0.31596655961598186 4.106463773085722 0.3195715774704214 Q 4.101667540577892 0.3231765953248609 4.100465867959745 0.321577851155584 Q 4.080638269760327 0.295198572362515 4.0700217519725745 0.2794096664453112 L 4.025157564567645 0.21805655170371538 L 3.980497141920659 0.1603032258341815 Q 3.9676810436545558 0.14491662045048567 3.947252609146065 0.11773796957277824 Q 3.9454501002188453 0.11533985331886287 3.950246332726676 0.11173483546442334 Q 3.9550425652345065 0.1081298176099838 3.9568450741617265 0.11052793386389917 Q 3.9760718360520704 0.1361078405723297 3.988780822956825 0.144694554254221 Q 4.00148980986158 0.1532812679361123 4.01638530478874 0.1489656879200616 Q 4.0312807997159 0.1446501079040109 4.055261962255054 0.12662501863181325 L 4.425371237442659 -0.151562192469104 Q 4.449352399981812 -0.16958728174130167 4.457539427621384 -0.1819958504915195 Q 4.465726455260956 -0.19440441924173735 4.461110457090369 -0.20969960021121703 Q 4.4564944589197815 -0.22499478118069682 4.43786853333851 -0.24977531580448886 Q 4.436666860720364 -0.2513740599737658 4.441463093228195 -0.2549790778282053 Q 4.446259325736025 -0.25858409568264484 4.447460998354172 -0.25698535151336793 L 4.478505950650416 -0.2140177947184566 Q 4.504545676698509 -0.1760450062069412 4.520768257043486 -0.15446195992170295 Q 4.538192510006612 -0.1312801694671878 4.56161989707809 -0.10510465543206168 Q 4.569028468562535 -0.09691239881011193 4.5803424760559555 -0.08352422363801221 Q 4.591656483549375 -0.07013604846591251 4.606076554967133 -0.05095111843458963 Q 4.661353495401873 0.02259111335214814 4.664916764174684 0.08308741998034413 Q 4.668480032947496 0.14358372660854007 4.620517707869189 0.17963390515293542 Q 4.583746591975819 0.20727237537030518 4.533349547766953 0.2101250819815052 Q 4.482952503558087 0.21297778859270516 4.435131195449191 0.19262778881987938 Q 4.382477217510606 0.3322829305341859 4.358467378345768 0.4185080870911828 Q 4.334457539180931 0.5047332436481797 4.334013489565794 0.5582337372901948 Q 4.333569439950658 0.6117342309322099 4.357602892313587 0.643709114317748 Q 4.358804564931734 0.645307858487025 4.354008332423904 0.6489128763414644 M 4.36284276054959 0.1081033415885238 Q 4.3844728676762275 0.13688073663550815 4.405883523097788 0.14705835101310988 Q 4.42729417851935 0.1572359653907116 4.454585169740785 0.148607419849799 Q 4.481876160962218 0.13997887430888645 4.521045393109503 0.11053789516429696 Q 4.586593904049856 0.06126931782028999 4.59695436725589 0.02345846220769615 Q 4.607314830461924 -0.014352393404897634 4.580277196553627 -0.05032413721362808 Q 4.559848762045137 -0.07750278809133551 4.539446472448534 -0.07968145264017507 Q 4.519044182851932 -0.08186011718901456 4.491066159889586 -0.060830846371450614 L 4.331191742961895 0.05933641544320045 Q 4.3424143260411 0.08092469071081634 4.36284276054959 0.1081033415885238" fill="#000000" fill-rule="nonzero"></path></g><g><path d=" M -0.9333334910014033 2.354535402927625 Q -0.9591447036174267 2.377682353121774 -0.9743604073206666 2.4073089013651185 Q -0.9895761110239066 2.436935449608463 -1.0118622502137875 2.489891355794735 Q -1.0346856370507365 2.54596356828266 -1.0510833530646906 2.577793034340477 Q -1.067481069078645 2.6096225003982934 -1.09652675548381 2.6347789727514037 Q -1.1255724418889752 2.659935445104514 -1.170060191373092 2.666705980226532 Q -1.2175137908228164 2.673927884356684 -1.2596807924407936 2.6560688817375704 Q -1.3018477940587707 2.6382098791184565 -1.331087888426914 2.5956244722125446 Q -1.3603279827950572 2.553039065306633 -1.3701076446379716 2.4887789827184643 Q -1.381692782513424 2.412655500267865 -1.3567204050882027 2.3441180625733296 Q -1.354506836802819 2.338723610289182 -1.350778054686076 2.336638859962199 Q -1.3470492725693328 2.3345541096352154 -1.339290795663757 2.3323618422916543 L -1.206794862924787 2.299047764071923 Q -1.2029908526400215 2.2974573220725407 -1.2011747261365724 2.3027442573401102 Q -1.199358599633123 2.3080311926076797 -1.2031626099178887 2.309621634607062 Q -1.271935707715758 2.3362723572855315 -1.3167989231683426 2.3871009112611756 Q -1.361662138620927 2.43792946523682 -1.3508292824256989 2.509109864411407 Q -1.343306465623457 2.5585406971715363 -1.3109287640118388 2.588510422534793 Q -1.2785510624002208 2.6184801478980493 -1.2192340630880651 2.6094527677353594 Q -1.1747463136039484 2.6026822326133416 -1.1451310907031595 2.57794484041981 Q -1.1155158678023707 2.5532074482262788 -1.0985486152927928 2.521797062328041 Q -1.081581362783215 2.490386676429803 -1.0602838402485366 2.4375812265795753 Q -1.0388358613778135 2.3857643933845507 -1.022212460859792 2.355417852309538 Q -1.0055890603417705 2.325071311234525 -0.9768119977601395 2.301472992032241 Q -0.9480349351785083 2.277874672829957 -0.9055244190047969 2.271405050380029 Q -0.8560935862446671 2.263882233577787 -0.8170106020797869 2.2847393750110645 Q -0.7779276179149066 2.3055965164443415 -0.7542324321669558 2.344979738409667 Q -0.7305372464190049 2.3843629603749927 -0.7233153422888527 2.4318165598247172 Q -0.7144384184622075 2.49014494248167 -0.7294387506964691 2.5510956605484965 Q -0.7321249889318096 2.5666771920567597 -0.7439883887942407 2.5684826680892976 L -0.8566261097902251 2.592705463320872 Q -0.8605805764110355 2.5933072886650512 -0.8613328580912597 2.5883642053890386 Q -0.8620851397714838 2.5834211221130254 -0.8582811294867183 2.5818306801136433 Q -0.8080767141045421 2.566098017397691 -0.769349244709596 2.5248011275116053 Q -0.7306217753146499 2.483504237625519 -0.7405518934936091 2.418255538382148 Q -0.7489774483121199 2.362893005690803 -0.7852450388474371 2.3405958785941885 Q -0.8215126293827544 2.3182987514975744 -0.8689662288324789 2.325520655627727 Q -0.90752227838538 2.331388452733475 -0.9333334910014033 2.354535402927625 M -1.0280518250863908 3.557164316125698 Q -1.0336564965320727 3.559306198005251 -1.0350844177851082 3.5555697503747967 Q -1.0418670437370268 3.5378216241301375 -1.0542780324521543 3.499743187199074 Q -1.0666890211672821 3.4616647502680107 -1.073114666805942 3.444850735930965 Q -1.080968233697637 3.424300273963465 -1.0949737881636659 3.393254429731119 Q -1.1082653820031771 3.364076809314 -1.114334047328578 3.348196906884568 Q -1.1157619685816136 3.3444604592541136 -1.1101572971359317 3.3423185773745603 Q -1.1045526256902498 3.340176695495007 -1.1031247044372143 3.3439131431254614 Q -1.089916432846636 3.378475283707166 -1.0773089841679397 3.3918563239437862 Q -1.0647015354892433 3.405237364180406 -1.0488216330598115 3.399168698855005 Q -1.0357440663532205 3.3941709744693807 -1.0132955651047901 3.3716750905858963 L -0.8254908837642183 3.1767920444619033 L -0.8929601629701454 3.0002448939229254 L -1.1142192990635913 2.9927352537729623 Q -1.1509768283080795 2.991795017717173 -1.1715272902755796 2.999648584608868 Q -1.2266398928247844 3.0207104230911415 -1.1916558221254148 3.1122533900372784 Q -1.1898709205591205 3.1169239495753467 -1.1954755920048024 3.1190658314549 Q -1.2010802634504842 3.121207713334453 -1.2028651650167785 3.116537153796385 Q -1.209290810655438 3.099723139459339 -1.2195599174910126 3.067249373973958 Q -1.2312569455796225 3.0310391608581218 -1.2412523943508709 3.0048840274449398 Q -1.2505338824956016 2.980597117846985 -1.2645394369616305 2.949551273614639 Q -1.277117070174624 2.9222418770127474 -1.2842566764398016 2.9035596388604747 Q -1.2860415780060959 2.8988890793224065 -1.280436906560414 2.896747197442853 Q -1.274832235114732 2.8946053155633 -1.2730473335484378 2.899275875101368 Q -1.2630518847771894 2.92543100851455 -1.246282593638698 2.9398978974237977 Q -1.229513302500207 2.954364786333046 -1.198512181466415 2.9612517664149243 Q -1.1675110604326233 2.9681387464968028 -1.1133088784735048 2.969906080893746 L -0.5727983023842891 2.9892274973973056 Q -0.5692820060349304 2.990024780272756 -0.567497104468636 2.9946953398108245 Q -0.5657122029023416 2.9993658993488927 -0.5681575583119237 3.001370952196283 L -0.9481638224668096 3.399240578082762 Q -1.0051507729794174 3.4574169261227827 -1.0204030991053523 3.4889386098936113 Q -1.0356554252312873 3.52046029366444 -1.0238750748937444 3.55128598661569 Q -1.0224471536407091 3.555022434246145 -1.0280518250863908 3.557164316125698 M -0.870130990090929 3.001155314513012 L -0.8094443368369206 3.159954338807331 L -0.6640913025836273 3.008058007602917 L -0.870130990090929 3.001155314513012 M -0.08543878356607126 3.844020271025823 Q -0.09035242432020585 3.847463544837083 -0.09207406122583572 3.8450067244600157 Q -0.11158594615630812 3.8171627601865863 -0.14067384263229443 3.8070190784781386 Q -0.16976173910828085 3.7968753967696904 -0.21473210697814815 3.8076302102803377 L -0.7734634142701605 3.9390734537421412 Q -0.7773130537414602 3.940550029490625 -0.7830518434268933 3.932360628233734 Q -0.7876428751752397 3.9258091072282215 -0.7860887515781132 3.921056770976981 L -0.4859380067475943 3.4066721576984684 Q -0.4637552843109557 3.370368895788565 -0.46155594270225286 3.3456269699037793 Q -0.45935660109355014 3.3208850440189934 -0.47657297014984923 3.2963168402483207 Q -0.4782946070554791 3.2938600198712535 -0.4733809663013445 3.2904167460599933 Q -0.46846732554720993 3.2869734722487336 -0.46674568864158006 3.2894302926258012 L -0.4457572279626236 3.32112389637053 Q -0.4313264970947893 3.3452019778269113 -0.4215705546295532 3.3591239599636262 Q -0.398615395887821 3.39188156499119 -0.3705790830834509 3.4284050528358017 L -0.34623110524748624 3.4614077190205115 Q -0.34450946834185636 3.4638645393975787 -0.34942310909599095 3.4673078132088384 Q -0.35433674985012553 3.470751087020098 -0.3560583867557554 3.468294266643031 Q -0.3738486347805978 3.442907122746669 -0.38929527979853185 3.4348045825468345 Q -0.40474192481646587 3.426702042347 -0.4203017872045587 3.4376057427493225 Q -0.43012906871282786 3.4444922903718425 -0.4413429605097201 3.46334033087391 L -0.6964768336497761 3.8973353847357646 L -0.22383662262619863 3.785925192546772 Q -0.20204784823838118 3.7804252552128754 -0.192220566730112 3.773538707590356 Q -0.17502282409064107 3.7614872492509464 -0.1777371232360727 3.7401885971774207 Q -0.18045142238150458 3.7188899451038946 -0.20340658112323662 3.686132340076331 Q -0.2051282180288666 3.6836755196992637 -0.20021457727473202 3.680232245888004 Q -0.19530093652059743 3.6767889720767437 -0.19357929961496745 3.6792457924538113 L -0.1697214440932946 3.7150340968269857 Q -0.15184743941420042 3.7440258190375015 -0.13577882829498789 3.766956142556796 Q -0.12372736995557854 3.7841538851962673 -0.10716863652207453 3.8042985705270973 L -0.08224677971756655 3.838120176837496 Q -0.08052514281193668 3.8405769972145634 -0.08543878356607126 3.844020271025823 M -0.017661967438205528 4.52532012702161 Q -0.015425194500583883 4.527319338572578 -0.014227620902888538 4.529730939177592 Q -0.013030047305193193 4.532142539782606 -0.014362855005838449 4.533633721741021 Q -0.0630566163890296 4.5746083187781705 -0.10903848206129174 4.626054096343468 Q -0.11436971286387282 4.632018824177125 -0.11931169476722736 4.632295979128221 Q -0.12425367667058179 4.632573134079317 -0.13096399548344662 4.626575499426414 L -0.44336661577126607 4.347352286141228 Q -0.4448577977296805 4.346019478440582 -0.44085937462774466 4.341545932565339 Q -0.43686095152580884 4.337072386690096 -0.43536976956739437 4.338405194390741 Q -0.40703731235752055 4.3637285407030015 -0.3906574509697812 4.371662653187611 Q -0.37427758958204194 4.379596765672222 -0.3597683923875168 4.373117321500814 Q -0.3452591951929917 4.366637877329407 -0.3252670796833125 4.344270147953191 L -0.016722096983930235 3.999061524580254 Q 0.0032700185257489855 3.976693795204038 0.007753331065419089 3.96192389646804 Q 0.012236643605089192 3.947153997732042 0.002854022645737586 3.931391179965756 Q -0.00652859831361402 3.9156283621994703 -0.03486105552348784 3.89030501588721 Q -0.03635223748190225 3.8889722081865647 -0.03235381437996643 3.8844986623113216 Q -0.02835539127803055 3.8800251164360784 -0.02686420931961614 3.8813579241367235 L 0.2728633643216808 4.149252271966425 Q 0.27957368313454567 4.1552499066193285 0.27357604848164185 4.1619602254321935 L 0.1930995568503715 4.255000723575325 Q 0.19110034529940356 4.257237496512946 0.18703918847820633 4.254278272750937 Q 0.18297803165700888 4.251319048988927 0.1842316522287697 4.248415872200983 Q 0.21731428335824798 4.206900338752034 0.21535105854575687 4.165579693206064 Q 0.21338783373326575 4.124259047660095 0.17759946673131988 4.092271662844609 L 0.1321184169996803 4.051621027974927 Q 0.10602273272742802 4.028296893213635 0.09005526039373457 4.021401980068951 Q 0.07408778806004124 4.014507066924267 0.06024499471583866 4.020240920116468 Q 0.04640220137163631 4.0259747733086675 0.028409297412924972 4.046105729747262 L -0.10687068420257095 4.197460698526325 L -0.015908584739291798 4.2787619682656866 Q 0.01987978226265419 4.310749353081174 0.04582685894156413 4.3124811763454725 Q 0.07177393562047407 4.314212999609771 0.09709728193273437 4.285880542399897 Q 0.09843008963337962 4.284389360441483 0.10290363550862291 4.288387783543419 Q 0.1073771813838662 4.292386206645355 0.10604437368322084 4.293877388603769 L 0.051320070827879816 4.35360385406923 Q 0.03199435916852322 4.375225992466239 0.022743892392890874 4.38707626100467 L -0.008497901443388634 4.423531031856938 Q -0.009830709144033944 4.425022213815353 -0.014304255019277123 4.421023790713417 Q -0.018777800894520413 4.4170253676114815 -0.017444993193875102 4.415534185653066 Q 0.011876776220321017 4.382728182567949 0.008508243323496312 4.354234271181076 Q 0.0051397104266714955 4.325740359794202 -0.03213983853368885 4.29242016727807 L -0.12086516505934636 4.2131181090896765 L -0.27413805063355356 4.384604034307333 Q -0.2927973584425875 4.4054805817251355 -0.2969870626215385 4.419171687556765 Q -0.3011767668004896 4.432862793388394 -0.29257933038478756 4.447253209889593 Q -0.2839818939690854 4.461643626390791 -0.2586318006760404 4.484301357301761 L -0.1989845223394639 4.537613665327572 Q -0.16319615533751797 4.569601050143058 -0.11667951309191765 4.565575880060338 Q -0.07016287084631723 4.561550709977618 -0.021977139055679662 4.524145693578734 Q -0.02064433135503435 4.52265451162032 -0.017661967438205528 4.52532012702161 M 0.9880954384093805 5.2200847477985794 Q 0.9857721188499872 5.2256166720772494 0.9820841693308738 5.224067792370987 Q 0.9645664091150851 5.216710613766241 0.9284613537770819 5.199377841944062 Q 0.8923562984390789 5.182045070121883 0.8757605256030685 5.175075111443702 Q 0.8554768032479447 5.16655627305926 0.8233547924823494 5.155234770315587 Q 0.793076756476311 5.144687707425046 0.7774029710200789 5.1381049686734315 Q 0.7737150215009655 5.136556088967169 0.7760383410603588 5.131024164688498 Q 0.7783616606197523 5.125492240409828 0.7820496101388658 5.127041120116091 Q 0.8161631431906649 5.141368257399017 0.834547468132856 5.141497084492183 Q 0.8529317930750469 5.141625911585349 0.8595145318266615 5.125952126129118 Q 0.8649356107985794 5.11304430281222 0.8641791527318623 5.081272809753296 L 0.8530194860659153 4.810855610152559 L 0.6787638712878061 4.737671044031666 L 0.520480091607492 4.892455555821812 Q 0.4944067907873657 4.918382047762358 0.48588795240292326 4.938665770117482 Q 0.4630419767355548 4.993063025524405 0.5533967399538336 5.03101057832783 Q 0.5580066768527254 5.032946677960658 0.555683357293332 5.038478602239328 Q 0.5533600377339386 5.044010526517998 0.5487501008350468 5.04207442688517 Q 0.5321543279990364 5.03510446820699 0.5015811969397035 5.020095015944205 Q 0.46732011636125714 5.003536683975156 0.4415044697274632 4.99269452603132 Q 0.41753279785322595 4.9826268079406155 0.38541078708763077 4.971305305196943 Q 0.3569767258411489 4.9615326821595325 0.3385369782455818 4.953788283628222 Q 0.33392704134669005 4.951852183995394 0.33625036090608346 4.946320259716724 Q 0.33857368046547687 4.940788335438054 0.34318361736436864 4.942724435070881 Q 0.3689992639981626 4.953566593014717 0.39104382713277896 4.9514365140950725 Q 0.41308839026739536 4.949306435175429 0.43948449746750406 4.9316501183262 Q 0.46588060466761283 4.913993801476971 0.5046033359712366 4.87602605094593 L 0.8919781965341218 4.498579740321643 Q 0.8949838310733753 4.4965882180354395 0.899593767972267 4.498524317668267 Q 0.9042037048711589 4.500460417301095 0.9039640324712405 4.503613599366996 L 0.9291047505958455 5.053225229786312 Q 0.9317980469424577 5.13461777339314 0.9440516359297163 5.167421729815062 Q 0.9563052249169749 5.200225686236983 0.9867308084496607 5.213003943813646 Q 0.990418757968774 5.2145528235199095 0.9880954384093805 5.2200847477985794 M 0.6951933761636883 4.721794288395411 L 0.8519312307260086 4.7876216759115575 L 0.8425241525934144 4.577594280362769 L 0.6951933761636883 4.721794288395411 M 1.9575978519161845 4.753486329552771 Q 1.9568447973862328 4.7594388843719155 1.9538685199766608 4.75906235710694 Q 1.91220063624265 4.753790975397278 1.8904641702838778 4.774224429525818 Q 1.8687277043251054 4.794657883654358 1.86220123173219 4.846246692086942 L 1.7960579421847622 5.369079423701791 Q 1.7958069240081116 5.3710636086415064 1.7907209525704992 5.371428155669737 Q 1.785634981132887 5.371792702697968 1.7839018143698229 5.369557499581602 L 1.3974478404326058 4.759227813241398 L 1.3897740990871423 4.7481773067478965 L 1.3340480638707133 5.1886663633645815 Q 1.3275215912777982 5.240255171797166 1.3430513474828412 5.264899170502975 Q 1.3585811036878839 5.289543169208785 1.3992568949520372 5.294689041830122 Q 1.4022331723616095 5.295065569095097 1.4014801178316578 5.3010181239142415 Q 1.400727063301706 5.306970678733387 1.3977507858921339 5.306594151468411 Q 1.3729484741456988 5.303456424260278 1.3601767811258778 5.300832713642192 L 1.3106976667213333 5.29356516675607 L 1.2599754416702806 5.288156295721338 Q 1.2459606380039516 5.287391260954641 1.2191741413178019 5.284002515569858 Q 1.217189956378087 5.283751497393208 1.217943010908039 5.277798942574063 Q 1.2186960654379906 5.271846387754919 1.2206802503777054 5.27209740593157 Q 1.2633402265815736 5.277494296729557 1.284021845526326 5.25743137974762 Q 1.304703464471078 5.2373684627656845 1.311229937063993 5.1857796543331 L 1.369968190400229 4.7214803784398365 Q 1.335794911255501 4.680870195080284 1.2961112124612049 4.675849831547272 Q 1.2931349350516328 4.6754733042822965 1.2938879895815845 4.669520749463152 Q 1.2946410441115364 4.663568194644008 1.2976173215211084 4.663944721908984 L 1.334199233817507 4.669580650646877 Q 1.3459788343674703 4.672078852176638 1.3668127762344757 4.6747145430314685 Q 1.3886388105713385 4.677475742974625 1.4026536142376675 4.678240777741322 Q 1.4166684179039963 4.679005812508018 1.4246051576628556 4.680009885214621 Q 1.4325418974217148 4.681013957921223 1.4355749392570771 4.684925563374863 Q 1.4386079810924395 4.688837168828502 1.4450386117913951 4.7017463511733935 Q 1.4546845578398289 4.72111012469073 1.4647070311532382 4.737497620798495 L 1.7872968332704746 5.255078358046281 L 1.83938310492547 4.843359983055461 Q 1.8459095775183854 4.791771174622875 1.8314346683273626 4.766756638770463 Q 1.8169597591363396 4.7417421029180495 1.7762839678721862 4.736596230296713 Q 1.7742997829324714 4.736345212120062 1.775052837462423 4.730392657300918 Q 1.775805891992375 4.724440102481774 1.7777900769320896 4.724691120658425 L 1.8163561741682028 4.730578067572968 Q 1.8458679300872745 4.736327525162442 1.864717687014565 4.738712197840622 Q 1.882575351471998 4.740971361430477 1.9145733286840856 4.7430034673171715 L 1.9553746290365641 4.747157247468651 Q 1.9583509064461364 4.747533774733627 1.9575978519161845 4.753486329552771 M 2.3329362566315837 5.3330243989360255 Q 2.318937552973247 5.334042385127522 2.2975163671439 5.336135898362393 Q 2.276095181314553 5.338229411597264 2.2503639097883825 5.341957905347627 L 2.183210141710336 5.352699014830353 Q 2.1655395881056934 5.356269944023919 2.1338703308427145 5.360858859408982 Q 2.1318910022637785 5.361145666620548 2.1310305806290795 5.35520768088374 Q 2.13017015899438 5.349269695146931 2.132149487573316 5.348982887935365 Q 2.1697567305731034 5.343533550915603 2.186358837609879 5.336075666367056 Q 2.2029609446466547 5.32861778181851 2.2073144102443405 5.313335526183631 Q 2.2116678758420267 5.2980532705487535 2.2073657676685308 5.268363341864711 L 2.1409698981909067 4.810148775840986 Q 2.1366677900174103 4.780458847156943 2.128722153799637 4.767463968739089 Q 2.1207765175818634 4.754469090321235 2.102668672684364 4.751535499830367 Q 2.084560827786865 4.748601909339499 2.0469535847870777 4.754051246359261 Q 2.0449742562081417 4.754338053570827 2.0441138345734426 4.748400067834019 Q 2.043253412938743 4.74246208209721 2.045232741517679 4.742175274885644 L 2.094859359596867 4.735994758885951 Q 2.136712066966093 4.731951136021992 2.161453674202795 4.728366045877412 Q 2.1990609172025826 4.7229167088576505 2.235248285095552 4.714641782575268 Q 2.2785067066205817 4.706352695341871 2.295330999541539 4.703914834043556 Q 2.3982560856462203 4.689000859042103 2.4831653730349954 4.71711514215817 Q 2.5680746604237705 4.745229425274237 2.622009570104142 4.807134800790182 Q 2.675944479784513 4.869040176306128 2.6882771898818687 4.954151305200384 Q 2.7021873396428395 5.050148741278788 2.6678411831028903 5.130403594907296 Q 2.633495026562941 5.2106584485358045 2.56210905801865 5.261925333510352 Q 2.490723089474359 5.313192218484899 2.399673974843295 5.326385350216955 Q 2.3709737104487205 5.330544054784668 2.3329362566315837 5.3330243989360255 M 2.523354586172597 5.259457356214369 Q 2.5799097513258813 5.21741257895863 2.60466023313373 5.147642143598949 Q 2.6294107149415793 5.077871708239269 2.6162175832095245 4.986822593608205 Q 2.6037414695063856 4.900721800424481 2.560900891943331 4.835187954863093 Q 2.5180603143802767 4.769654109301705 2.4518112448856115 4.737825493386288 Q 2.3855621753909473 4.705996877470873 2.3063890322335 4.717469165933529 Q 2.2638334677863723 4.7236355209822065 2.241293375012788 4.731953827165452 Q 2.218753282239204 4.740272133348698 2.2100180291418035 4.756694537354335 Q 2.2012827760444025 4.773116941359971 2.2055848842178984 4.802806870044014 L 2.270116506820341 5.248155800304653 Q 2.274418614993837 5.277845728988696 2.28526862275263 5.293451091260496 Q 2.296118630511424 5.309056453532296 2.320594671963081 5.31409861525687 Q 2.345070713414738 5.319140776981444 2.387626277861866 5.312974421932766 Q 2.466799421019313 5.301502133470109 2.523354586172597 5.259457356214369 M 3.1945839922066392 4.637901921282755 Q 3.224573840034762 4.655297582444265 3.2574521770661704 4.660614061923122 Q 3.2903305140975787 4.6659305414019805 3.347581282472698 4.670762675553516 Q 3.4079618610576357 4.675142827348627 3.4433005513355135 4.6809027726126216 Q 3.4786392416133918 4.686662717876615 3.511539721730151 4.706513622341821 Q 3.54444020184691 4.726364526807027 3.564626109602825 4.766583044035658 Q 3.5861577445424677 4.809482795746198 3.5822023220756574 4.855104661480833 Q 3.578246899608847 4.900726527215467 3.5467807190172187 4.941694557177561 Q 3.5153145384255904 4.9826625871396555 3.4572211246509013 5.011820009453755 Q 3.388402772948577 5.046360340502765 3.315502953524368 5.043788118133353 Q 3.3096885022041254 5.04334976229099 3.306553582051534 5.040447646573642 Q 3.303418661898943 5.037545530856295 3.2989363112483665 5.03084414796578 L 3.2263113294977748 4.915126335915404 Q 3.223623281758835 4.911999932334101 3.2280903025810916 4.908639021003298 Q 3.2325573234033484 4.905278109672494 3.2352453711422884 4.908404513253797 Q 3.2818427407885986 4.965576929173059 3.344046578627555 4.992538616028759 Q 3.406250416466511 5.01950030288446 3.4706000440323206 4.987202850474996 Q 3.5152872853974664 4.964774064079536 3.5337856494219135 4.924720218715837 Q 3.5522840134463607 4.884666373352139 3.525369469771807 4.8310416837139645 Q 3.5051835620158927 4.790823166485333 3.47250566644883 4.770301101742521 Q 3.4398277708817675 4.749779036999709 3.4047116651535863 4.74334793145811 Q 3.369595559425405 4.736916825916509 3.312793366778195 4.732978436592277 Q 3.256884918958288 4.728591471540135 3.222886845921364 4.7221586626842775 Q 3.1888887728844404 4.7157258538284195 3.15755319787259 4.695648958185002 Q 3.12621762286074 4.675572062541583 3.1069288665606436 4.637141034967558 Q 3.0845000801651823 4.592453793602412 3.0922598797479326 4.548838595443565 Q 3.1000196793306825 4.505223397284717 3.1301537592526447 4.4705183943707745 Q 3.1602878391746074 4.435813391456831 3.2031875908851473 4.414281756517189 Q 3.255918535696019 4.387815788570545 3.3185215531494094 4.38324827220708 Q 3.334170604198499 4.380988360424957 3.33955351293341 4.391713298352592 L 3.39739593543409 4.491353923397062 Q 3.399190238345727 4.494928902706274 3.3947215142092126 4.49717178134582 Q 3.390252790072698 4.499414659985366 3.3875647423337583 4.496288256404063 Q 3.3570888458640553 4.453402131207586 3.3058461570164934 4.4293306368694285 Q 3.254603468168931 4.405259142531271 3.195616309566939 4.43486514057328 Q 3.1455665992379758 4.459985381336196 3.1355673276441953 4.501367920741044 Q 3.125568056050415 4.542750460145893 3.147099690990057 4.585650211856432 Q 3.164594144378517 4.620506260121246 3.1945839922066392 4.637901921282755 M 3.9483921619358404 4.651217301343676 Q 3.964023816430534 4.657393981500404 3.9870132002437835 4.647014278619921 Q 4.010002584057033 4.636634575739438 4.051732987774927 4.603960833903806 Q 4.054095086098582 4.602111376818771 4.057794000268654 4.606835573466079 Q 4.061492914438725 4.611559770113389 4.05913081611507 4.613409227198424 Q 4.0268488056917935 4.638685140693913 4.008122899515431 4.652076945571302 L 3.9390055624344407 4.704923834929454 L 3.8868685189011707 4.747015742603137 Q 3.8725250485463714 4.759516336916249 3.8473293330940574 4.77924387915663 Q 3.845754600878288 4.780476850546655 3.8420556867082163 4.775752653899346 Q 3.8383567725381447 4.7710284572520365 3.839931504753914 4.769795485862013 Q 3.869851416853537 4.74636902945156 3.8805478952664614 4.731643699249427 Q 3.891244373679386 4.716918369047295 3.887029527749022 4.701802646312894 Q 3.882814681818658 4.686686923578492 3.8643201109683005 4.663065940341948 L 3.5788872341777815 4.298515432391282 Q 3.560392663327424 4.274894449154738 3.547037666949948 4.2675702378144225 Q 3.5336826705724724 4.260246026474106 3.5165130923619228 4.266704012543449 Q 3.499343514151373 4.273161998612791 3.4694236020517506 4.296588455023244 Q 3.467848869835981 4.297821426413267 3.4641499556659094 4.293097229765959 Q 3.460451041495838 4.28837303311865 3.4620257737116074 4.287140061728626 L 3.5020105648008597 4.2571031430859145 Q 3.5363129127220456 4.232785476111184 3.5559970654191657 4.217373333735885 Q 3.575681218116286 4.201961191360588 3.5982401103756794 4.180488036491564 Q 3.607688503670297 4.173090208151421 3.627235293932784 4.1558805309192834 Q 3.646782084195271 4.138670853687146 3.6617420402450827 4.12695762548192 Q 3.734179722170485 4.070240941540823 3.8031544546535803 4.0683079958909385 Q 3.8721291871366756 4.066375050241055 3.923913985517677 4.132513803303379 Q 3.9646020413884635 4.184479966423776 3.966754499157744 4.239947226366479 Q 3.968906956927024 4.295414486309183 3.942313970715161 4.344177311128257 Q 3.9157209845032983 4.39294013594733 3.8732032146775186 4.426230363477974 Q 3.850369597548859 4.44410844863332 3.832327213023988 4.451884846299122 Q 3.8299651147003337 4.453734303384158 3.8268826862252743 4.449797472844734 Q 3.8250332291402382 4.4474353745210795 3.82436482121703 4.444148547654907 Q 3.8236964132938214 4.440861720788735 3.825887631204603 4.440416115506596 Q 3.8409514317108076 4.433701808817944 3.8566987538685034 4.4213720949177056 Q 3.9086649169889007 4.380684039046919 3.917981190012147 4.31877719728483 Q 3.9272974630353934 4.256870355522741 3.8773621217394276 4.193093700784072 Q 3.828659751833486 4.130891778261172 3.7667529100713972 4.121575505237926 Q 3.704846068309308 4.112259232214679 3.6520925390810257 4.153563773780478 Q 3.6237473591971727 4.175757258800907 3.6136154442510637 4.188770494352637 Q 3.6034835293049543 4.201783729904367 3.6069110091274337 4.21751593833378 Q 3.6103384889499126 4.233248146763193 3.631299002580318 4.260018594431277 L 3.9130329652007654 4.619844905734634 Q 3.932760507441147 4.645040621186948 3.9483921619358404 4.651217301343676 M 4.547766932125965 3.896628008241369 Q 4.5496972157964 3.894331488058212 4.552071292249483 3.893061149129059 Q 4.554445368702565 3.891790810199907 4.555976382158003 3.8930776659801976 Q 4.598412454992999 3.940503183608821 4.651232419205617 3.984899708028845 Q 4.65735647302737 3.990047131150007 4.657783748958878 3.9949784023125323 Q 4.658211024890387 3.9999096734750577 4.652420173879079 4.0067992340245295 L 4.382823887908211 4.327546552938832 Q 4.381537032127921 4.329077566394271 4.376943991761606 4.325216999053399 Q 4.372350951395291 4.321356431712528 4.373637807175582 4.319825418257089 Q 4.398088067001102 4.290736162603764 4.405520521440049 4.274122655417953 Q 4.412952975878995 4.257509148232143 4.406035409613013 4.243203650094862 Q 4.39911784334703 4.228898151957582 4.376152641515457 4.209595315253223 L 4.021723026581514 3.911688202115963 Q 3.9987578247499407 3.8923853654116045 3.983858449275929 3.8883531686797452 Q 3.9689590738019174 3.8843209719478855 3.95348879872192 3.8941784862871707 Q 3.9380185236419227 3.904036000626456 3.913568263816402 3.933125256279782 Q 3.9122814080361117 3.93465626973522 3.907688367669797 3.9307957023943483 Q 3.9030953273034825 3.9269351350534767 3.904382183083773 3.9254041215980386 L 4.163040194922172 3.61767041705496 Q 4.168831045933479 3.610780856505488 4.175720606482951 3.616571707516796 L 4.271164789772691 3.694182324549226 Q 4.273461309955849 3.6961126082196616 4.270626923868981 3.70026185580333 Q 4.267792537782115 3.704411103386998 4.264852589708813 3.703246326444281 Q 4.222350449469264 3.6714411684497392 4.181108592187338 3.6746597407943073 Q 4.139866734905412 3.677878313138876 4.108982196178439 3.7146226360693926 L 4.069733094879577 3.7613185464602577 Q 4.047213118724493 3.7881112819304263 4.04080684553955 3.8042809963335906 Q 4.034400572354609 3.820450710736755 4.040552631892872 3.83411278098389 Q 4.046704691431136 3.8477748512310255 4.067373373079552 3.8651474042649476 L 4.222771238806529 3.9957632659644378 L 4.301269441404252 3.902371445182707 Q 4.332153980131225 3.8656271222521905 4.3330961442356974 3.8396393880916246 Q 4.33403830834017 3.8136516539310588 4.304949052686844 3.7892013941055387 Q 4.303418039231406 3.787914538325248 4.307278606572278 3.7833214979589336 Q 4.3111391739131495 3.7787284575926186 4.312670187368587 3.780015313372909 L 4.374032804423689 3.8328984792023952 Q 4.396232499527543 3.8515578880166084 4.408358528333475 3.860443799641068 L 4.445746279154137 3.890562831640322 Q 4.447277292609575 3.8918496874206125 4.443416725268704 3.896442727786927 Q 4.439556157927832 3.9010357681532417 4.438025144472394 3.899748912372951 Q 4.404342848452753 3.8714380852065595 4.375964520987967 3.87567134993976 Q 4.347586193523181 3.8799046146729603 4.315414799015917 3.9181799510589155 L 4.23884688008863 4.009275251657488 L 4.414913427464024 4.157263666390901 Q 4.436347615840158 4.1752796473149685 4.450159770641378 4.179051169520542 Q 4.463971925442598 4.182822691726116 4.478094305323518 4.173791723533337 Q 4.492216685204438 4.1647607553405575 4.514093233469377 4.1387335265981084 L 4.565567464680998 4.07749298838058 Q 4.596452003407972 4.040748665450064 4.5910144671501705 3.994375901898113 Q 4.58557693089237 3.9480031383461625 4.546724234020822 3.900976890932536 Q 4.545193220565384 3.8996900351522457 4.547766932125965 3.896628008241369 M 4.5658557256155445 2.896848336355442 Q 4.5712385190305795 2.899498908944725 4.569913232735938 2.9021903056522422 Q 4.551359224610954 2.9398698595574846 4.56359978616919 2.9670759002973472 Q 4.575840347727425 2.9942819410372095 4.622491223991059 3.0172535701443315 L 5.095279912278265 3.25006219590305 Q 5.097074176749943 3.2509457200994776 5.095762498494713 3.2558731433768875 Q 5.094450820239482 3.2608005666542965 5.0917730315713765 3.261711306929547 L 4.388859811030609 3.428330646710398 L 4.375912629788293 3.4319872158508113 L 4.774239342500854 3.628129587457777 Q 4.820890218764487 3.6511012165648995 4.8492482928878236 3.6444439174116883 Q 4.87760636701116 3.6377866182584775 4.895718613037929 3.6010041965890744 Q 4.897043899332571 3.598312799881557 4.902426692747606 3.6009633724708405 Q 4.90780948616264 3.6036139450601237 4.906484199867999 3.606305341767641 Q 4.895440147412652 3.6287336476636187 4.888800107900032 3.639954604631313 L 4.865814870753499 3.6843694543250542 L 4.84418213598043 3.730564960451062 Q 4.838894598841274 3.7435665738510235 4.826967022189499 3.7677891442186793 Q 4.826083497993071 3.7695834086903575 4.820700704578037 3.766932836101074 Q 4.815317911163002 3.7642822635117907 4.81620143535943 3.7624879990401126 Q 4.835197205582627 3.7239113128990313 4.8229634480440975 3.697823285444115 Q 4.810729690505568 3.671735257989199 4.764078814241934 3.6487636288820764 L 4.344220927869236 3.4420189669179773 Q 4.294695445548686 3.4611036885800024 4.27702496162013 3.496988978013566 Q 4.275699675325489 3.4996803747210836 4.270316881910454 3.4970298021318005 Q 4.264934088495419 3.494379229542517 4.266259374790061 3.491687832835 L 4.283501704659814 3.458935702207167 Q 4.28969998207422 3.4486118774753116 4.2989769861367115 3.4297721005226904 Q 4.308695752297417 3.41003519133423 4.313983289436572 3.397033577934269 Q 4.319270826575727 3.3840319645343078 4.3228049233614385 3.376854906647595 Q 4.32633902014715 3.369677848760882 4.331025150316336 3.3680840532791936 Q 4.335711280485521 3.3664902577975053 4.350010964101301 3.3646143450893593 Q 4.371460489524972 3.36180047602714 4.390218618241125 3.357661320670279 L 4.984640573605366 3.221218882327394 L 4.6123306957321395 3.037887611568631 Q 4.565679819468506 3.014915982461509 4.537314941325463 3.0204552683297736 Q 4.5089500631824215 3.0259945541980384 4.490837817155652 3.0627769758674415 Q 4.489954292959224 3.0645712403391197 4.48457149954419 3.0619206677498365 Q 4.479188706129155 3.059270095160553 4.480072230325582 3.057475830688875 L 4.498198084391763 3.022929435589364 Q 4.513245211809858 2.9968989927106184 4.521638691675922 2.979853480229676 Q 4.529590409443772 2.9637050999845718 4.541932532114938 2.934113344241293 L 4.559147645905869 2.896889160473676 Q 4.56047293220051 2.894197763766159 4.5658557256155445 2.896848336355442 M 5.236035972612096 2.7307106571420494 Q 5.2324394953007864 2.744277725762397 5.227442626603512 2.7652128948140717 Q 5.222445757906238 2.7861480638657468 5.217591067768228 2.8116908120276793 L 5.205876599259663 2.8786816414565037 Q 5.203498073324193 2.8965518013431497 5.197523070077412 2.927989029850144 Q 5.1971496323744875 2.929953856631831 5.191255152029426 2.9288335435230595 Q 5.185360671684365 2.9277132304142883 5.185734109387289 2.925748403632601 Q 5.192829425742841 2.8884166947805454 5.191184938689206 2.8702908661834736 Q 5.189540451635572 2.852165037586402 5.1765091300028425 2.843071927199721 Q 5.1634778083701125 2.8339788168130404 5.134005406644806 2.828377251269184 L 4.679148006684236 2.741926423042326 Q 4.6496756049589285 2.736324857498469 4.6348015043783475 2.739605273923064 Q 4.619927403797766 2.742885690347659 4.6112565502475436 2.7590509710043807 Q 4.602585696697321 2.7752162516611025 4.595490380341769 2.8125479605131583 Q 4.595116942638844 2.814512787294845 4.589222462293783 2.813392474186074 Q 4.583327981948722 2.8122721610773023 4.5837014196516455 2.810307334295615 L 4.594019775615584 2.761373383604899 Q 4.603826794158671 2.720485458892393 4.608494765445219 2.695925124121304 Q 4.61559008180077 2.6585934152692485 4.61955143913233 2.621683963253651 Q 4.625802241814966 2.5780843363536103 4.628976462289819 2.5613833087092694 Q 4.648395222841855 2.4592123160615387 4.70262926659255 2.3880879988525296 Q 4.756863310343244 2.31696368164352 4.832958823201504 2.2861298865018522 Q 4.909054336059764 2.2552960913601847 4.993541887672311 2.2713539125859077 Q 5.088835986584137 2.2894656411777117 5.153530076460466 2.348076004895005 Q 5.218224166336795 2.4066863686122986 5.243447838251932 2.4908767265823033 Q 5.268671510167068 2.575067084552308 5.251493375832574 2.665449116509916 Q 5.2460785291401795 2.6939391048443793 5.236035972612096 2.7307106571420494 M 5.228493214769632 2.5267146846226636 Q 5.207158934967009 2.459549972866389 5.149252658242191 2.413426626111532 Q 5.091346381517374 2.367303279356675 5.000964349559766 2.3501251450221803 Q 4.915494384556375 2.333880604944995 4.83958131170824 2.3530432083890385 Q 4.763668238860104 2.3722058118330813 4.711999439896342 2.424477555764601 Q 4.66033064093258 2.4767492996961207 4.645393132815629 2.555342370963606 Q 4.637364222202767 2.597586146769879 4.6378883961476305 2.6216064557120125 Q 4.638412570092494 2.645626764654146 4.6510948635890665 2.6592340947253534 Q 4.663777157085639 2.672841424796561 4.693249558810946 2.678442990340418 L 5.13533558469055 2.762466473498271 Q 5.164807986415857 2.768068039042128 5.183096124297624 2.76289174569481 Q 5.20138426217939 2.757715452347492 5.214122669010915 2.736215847900094 Q 5.22686107584244 2.7147162434526964 5.234889986455301 2.6724724676464233 Q 5.249827494572253 2.593879396378938 5.228493214769632 2.5267146846226636" fill="#000000" fill-rule="nonzero"></path></g><g transform="matrix(1,0,0,1,0,0)" clip-path="url(#SvgjsClipPath75859)"><g clip-path="url(#c5361409c-37ce-478f-bedb-b39227692b01b6430ec1-b0c7-4c07-b1f3-43acf31d73d5)"><path d=" M 0.5541632381664403 0.7166812499505477 C 0.5668266552075707 0.7291428595487915 0.5875018277312968 0.7185681495415368 0.5875018277312968 0.7185681495415368 C 0.6658939289205734 0.6707498759495711 0.835593807643865 0.60974348596497 0.835593807643865 0.60974348596497 C 2.11558778526818 0.15153968689108033 2.1644050057024335 1.2086272534750668 2.1644050057024335 1.2086272534750668 C 2.2360668286714445 1.6827233886762718 2.4563497429542474 1.840355182314948 2.4563497429542474 1.840355182314948 C 2.498749486704709 1.8726443731767946 2.532935667529689 1.8922600566253662 2.560603467949434 1.9040859727785178 C 2.560603467949434 1.9040859727785178 2.59289265881128 1.9183033071298745 2.6130330416113567 1.9235503006449244 C 2.6523552218577993 1.9345387159100964 2.689962038839706 1.9355881146131066 2.6449186175874306 1.8927544848604383 C 2.506458531022975 1.743124356332213 2.4814848599657657 1.624320314704907 2.474421599464737 1.5517604486150511 C 2.4626965870330286 1.4308475192095806 2.5433993834433566 1.4135021694934824 2.5433993834433566 1.4135021694934824 C 2.6302774876060124 1.3802745740222135 2.7254397872991603 1.4713805441133423 2.7254397872991603 1.4713805441133423 C 3.034548247568474 1.7157996285653756 3.1141108319264923 2.6302597848893 3.1141108319264923 2.6302597848893 C 3.1228894556920572 2.7704554154625796 3.1621510937056336 2.7691335767116727 3.1621510937056336 2.7691335767116727 C 3.228616375020316 2.784682840186081 3.235780539242788 2.618565043574025 3.235780539242788 2.618565043574025 C 3.2655673178128413 1.8313848414786416 3.0054677950485242 1.3623944345824663 3.0054677950485242 1.3623944345824663 C 3.279582844721311 1.6295673082199569 3.3098135996657154 2.734826311420961 3.3098135996657154 2.734826311420961 C 3.3069378436045813 2.9300447412972557 3.382262471661983 2.9067460720160048 3.382262471661983 2.9067460720160048 C 3.451199894152025 2.9028310076240054 3.4618149656478576 2.713797975872183 3.4618149656478576 2.713797975872183 C 3.5510844880087182 1.92421626520645 3.2988251844005427 1.3565823802273338 3.2988251844005427 1.3565823802273338 C 3.2489686556354234 1.2342265276052247 3.225387455934131 1.1823620147833838 3.214197233226072 1.16082916062739 C 3.600204419607302 1.6755188629652225 3.558127567765458 2.464111717160811 3.558127567765458 2.464111717160811 C 3.542235231638143 2.6507634210865723 3.6101837976580415 2.64593013282944 3.6101837976580415 2.64593013282944 C 3.679787184709609 2.620916100283653 3.6880310187515235 2.4674718110848723 3.6880310187515235 2.4674718110848723 C 3.767442247527377 1.4687974088443947 3.4140572342887565 0.9717053155262686 3.4140572342887565 0.9717053155262686 C 3.47826227224311 0.9975467585878901 3.5401061631156905 1.0925980641874506 3.5401061631156905 1.0925980641874506 C 3.7731937596496445 1.394098383859942 3.7740716220262005 1.9427421884634344 3.7740716220262005 1.9427421884634344 C 3.800367131834317 2.108920527308356 3.8737947699285846 1.985111661097464 3.8737947699285846 1.985111661097464 C 3.973598640808123 1.5304798537626658 3.7265257884821317 1.0088177042731035 3.7265257884821317 1.0088177042731035 C 3.168053961410064 -0.16400643080631414 1.8219882269846968 0.03557103983632992 1.8219882269846968 0.03557103983632992 C 1.5115579279644762 0.07138177057654643 1.2054866697106048 0.1660900035231998 0.986777853482317 0.30591229032713924 C 0.9202722106790574 0.3469801049545502 0.8642605549058981 0.3859087606873638 0.7998738902529476 0.4358661931739269 C 0.6195791207781124 0.5757389318385879 0.5658983409702926 0.6678337583998606 0.5658983409702926 0.6678337583998606 C 0.5449608187708141 0.7013337939190263 0.5490373291171222 0.7104151288489206 0.5541632381664403 0.7166812499505477 Z" fill="none" transform="matrix(1,0,0,1,0,0)" fill-rule="nonzero" stroke-dasharray="none" stroke-miterlimit="4" stroke-linejoin="miter" stroke-linecap="butt" stroke-width="0.04540667464947156" stroke="#000000"></path></g><g clip-path="url(#c5361409c-37ce-478f-bedb-b39227692b01b6430ec1-b0c7-4c07-b1f3-43acf31d73d5)"><path d=" M 3.366904925258317 3.293136692538719 C 3.350013642288714 3.2802210161939804 3.32817807696839 3.2961133523212953 3.32817807696839 3.2961133523212953 C 3.1802431309604113 3.404100515009883 3.0828912205119448 3.4302749403522674 3.0828912205119448 3.4302749403522674 C 2.0960730055410512 3.740836414210364 1.8749122288816917 2.7275309723606127 1.8749122288816917 2.7275309723606127 C 1.7448170608248836 2.2572187267135306 1.5030618346189526 2.1247321404585167 1.5030618346189526 2.1247321404585167 C 1.456282869357853 2.0972459667373697 1.419352107309616 2.0816058899136634 1.3899689436253355 2.073049254335274 C 1.3899689436253355 2.073049254335274 1.3555809553574694 2.062595628793751 1.3346030716694133 2.0597097823604735 C 1.293545347414147 2.0534234805145575 1.2412772197065327 2.064603612850472 1.2919914301039204 2.1024021469031213 C 1.4501075616055243 2.236755452004835 1.491710165956585 2.3596158232341606 1.5076428635724772 2.4320546048582847 C 1.527672252278966 2.5347039606825232 1.4670593868079937 2.5666803500078954 1.4670593868079937 2.5666803500078954 C 1.3832992076379356 2.6107954570228933 1.2760789132323165 2.5303146487997408 1.2760789132323165 2.5303146487997408 C 0.9161351580998832 2.342704359520269 0.7097164151433856 1.2521066670449723 0.7097164151433856 1.2521066670449723 C 0.6867910896314747 1.1367737134353142 0.6481046028301252 1.1473686041868578 0.6481046028301252 1.1473686041868578 C 0.5790360055022062 1.1397402828457468 0.5920122240798108 1.3084916665874715 0.5920122240798108 1.3084916665874715 C 0.6577207274836684 2.107528055952439 0.9500186277605333 2.576296474661439 0.9500186277605333 2.576296474661439 C 0.39548204582475344 1.9339534743257258 0.4776883076845854 1.01074496535267 0.4776883076845854 1.01074496535267 C 0.4732788150575144 0.8365145095365758 0.4203447227883751 0.8541524800448593 0.4203447227883751 0.8541524800448593 C 0.34315337588427347 0.8497429874177882 0.3261611891932267 1.0379990605144975 0.3261611891932267 1.0379990605144975 C 0.20139373762862303 1.8553898368099957 0.6854793412527116 2.714342855967977 0.6854793412527116 2.714342855967977 C 0.7400884352978092 2.8103729276655374 0.7713484082009344 2.861500843320842 0.7852731217601059 2.88192375654096 C 0.28618313475740326 2.4043968948106844 0.2206461676799992 1.5126501661836405 0.2206461676799992 1.5126501661836405 C 0.20139373762862303 1.3106409158542132 0.13977183494321804 1.341456912382988 0.13977183494321804 1.341456912382988 C 0.07248923348484597 1.3751789360893292 0.09048036701818091 1.5663511267357486 0.09048036701818091 1.5663511267357486 C 0.13178026020491165 2.5851154599155812 0.5932230687371302 3.0702101007541023 0.5932230687371302 3.0702101007541023 C 0.5405008742830214 3.0758607091549255 0.48174463728660544 3.008154312066491 0.48174463728660544 3.008154312066491 C 0.20447130113264325 2.6908322888716953 0.12437392705097518 2.2379662966621545 0.12437392705097518 2.2379662966621545 C 0.11204349229060803 2.1886748287371174 0.10280071140640423 2.1578588322083427 0.0627520243655695 2.154781268704323 C 0.02579099120089952 2.164024049588526 0.022703337324736162 2.244131514042339 0.022703337324736162 2.244131514042339 C 0.022703337324736162 2.6569488192110455 0.3246173622551443 3.1067473382887107 0.3246173622551443 3.1067473382887107 C 1.1564373707170312 4.277452495217819 2.380762765221094 3.9188003077198594 2.380762765221094 3.9188003077198594 C 3.0200282020527873 3.7693820770066653 3.360729617505989 3.343931625913261 3.360729617505989 3.343931625913261 C 3.383564129668601 3.3121469536586305 3.3728683351956144 3.2988478431724078 3.366904925258317 3.293136692538719 Z" fill="none" transform="matrix(1,0,0,1,0,0)" fill-rule="nonzero" stroke-dasharray="none" stroke-miterlimit="4" stroke-linejoin="miter" stroke-linecap="butt" stroke-width="0.04540667464947156" stroke="#51a8db"></path></g></g><g transform="matrix(0.3138516657065732,-0.9494720279888236,0.9494720279888236,0.3138516657065732,-1.933378376445619,-0.04555548693077638)"><g clip-path="url(#SvgjsClipPath75860)"><path d=" M -0.9982083644711376 1.4906986292431588 C -0.9873396153332066 1.4906986292431588 -0.9818178903332065 1.4832807128638483 -0.9716400929194134 1.4698228576914345 L -0.8695068282642411 1.3333579292431588 C -0.8639851032642409 1.3261107878638485 -0.8613979601607928 1.3192110852776415 -0.8613979601607928 1.3117912059672967 C -0.8613979601607928 1.3043732895879865 -0.8639851032642409 1.2974716240707451 -0.8695068282642411 1.2902264456224692 L -0.9716400929194134 1.153760535708676 C -0.9818178903332065 1.140303858294883 -0.9873396153332066 1.1328853530362624 -0.9982083644711376 1.1328853530362624 C -1.0092498515401032 1.1328853530362624 -1.014771576540103 1.140303858294883 -1.0249493739538962 1.153760535708676 L -1.1270832274883789 1.2902264456224692 C -1.1326039710228617 1.2974716240707451 -1.1351918992987238 1.3043732895879865 -1.1351918992987238 1.3117912059672967 C -1.1351918992987238 1.3192110852776415 -1.1326039710228617 1.3261107878638485 -1.1270832274883789 1.3333579292431588 L -1.0249493739538962 1.4698228576914345 C -1.014771576540103 1.4832807128638483 -1.0092498515401032 1.4906986292431588 -0.9982083644711376 1.4906986292431588 Z" fill="#000000" transform="matrix(1,0,0,1,0,0)" fill-rule="nonzero"></path></g></g><g transform="matrix(-0.3138516657065732,-0.9494720279888236,-0.9494720279888236,0.3138516657065732,7.710577257262285,5.572149137155595)"><g clip-path="url(#SvgjsClipPath75861)"><path d=" M 4.918453167923683 1.490698629243159 C 4.929321917061614 1.490698629243159 4.934843642061614 1.4832807128638485 4.945021439475407 1.469822857691435 L 5.0471547041305795 1.333357929243159 C 5.05267642913058 1.3261107878638487 5.055263572234028 1.3192110852776417 5.055263572234028 1.311791205967297 C 5.055263572234028 1.3043732895879865 5.05267642913058 1.2974716240707451 5.0471547041305795 1.2902264456224692 L 4.945021439475407 1.1537605357086762 C 4.934843642061614 1.1403038582948832 4.929321917061614 1.1328853530362624 4.918453167923683 1.1328853530362624 C 4.907411680854717 1.1328853530362624 4.901889955854718 1.1403038582948832 4.891712158440924 1.1537605357086762 L 4.789578304906442 1.2902264456224692 C 4.784057561371959 1.2974716240707451 4.781469633096097 1.3043732895879865 4.781469633096097 1.311791205967297 C 4.781469633096097 1.3192110852776417 4.784057561371959 1.3261107878638487 4.789578304906442 1.333357929243159 L 4.891712158440924 1.469822857691435 C 4.901889955854718 1.4832807128638485 4.907411680854717 1.490698629243159 4.918453167923683 1.490698629243159 Z" fill="#000000" transform="matrix(1,0,0,1,0,0)" fill-rule="nonzero"></path></g></g></g><defs><clipPath id="SvgjsClipPath75859"><path d=" M 0 0 h 3.920244803452546 v 3.9932729194864156 h -3.920244803452546 Z"></path></clipPath><clipPath id="c5361409c-37ce-478f-bedb-b39227692b01b6430ec1-b0c7-4c07-b1f3-43acf31d73d5"><path d=" M 7.158455960925861e-16 3.9932773445171375 L 3.9202407529089216 3.9932773445171375 L 3.9202407529089216 0.000002478027577401803 L 7.158455960925861e-16 0.000002478027577401803 Z"></path></clipPath><clipPath id="SvgjsClipPath75860"><path d=" M -1.2730187092987237 1.030273525794883 h 0.5496206896551723 v 0.5692499999999999 h -0.5496206896551723 Z"></path></clipPath><clipPath id="SvgjsClipPath75861"><path d=" M 4.643642823096097 1.0302735257948832 h 0.5496206896551723 v 0.5692499999999999 h -0.5496206896551723 Z"></path></clipPath></defs></svg>